<?xml version="1.0" standalone="yes"?>
<svg xmlns="http://www.w3.org/2000/svg" width="200" height="90" viewBox="250 -150 200 400">
<path style="fill:#010101; stroke:none;" d="M0 0L0 113L708 113L708 0L0 0z"/>
<path style="fill:#ffffff; stroke:none;" d="M73 51L73 50C53.6814 38.8023 54.6989 13.4789 73 2C68.5313 0.12484 62.8087 1 58 1C46.5723 1 31.9656 -1.6063 22.0147 5.10802C8.82105 14.0103 8.112 36.8437 21.0154 46.3627C33.6863 55.71 57.9634 51 73 51M493 1L493 89L502 89L502 1L493 1M513.109 2.03163C505.179 6.37483 512.183 18.3968 519.772 13.8202C526.76 9.60538 520.625 -2.08511 513.109 2.03163M592.148 2.03163C585.037 6.12473 591.111 18.3407 598.852 13.8202C605.96 9.66906 599.622 -2.27022 592.148 2.03163M83 4.47145C55.2436 9.37594 62.219 52.6495 90 47.5316C117.125 42.5346 110.203 -0.33522 83 4.47145M616 11L616 27L605 27L605 37L616 37C616 49.827 612.762 68.4425 619.367 79.9992C625.255 90.3015 642.988 95.7481 643 80C620.41 79.9352 626 52.7753 626 37L643 37L643 27L626 27L626 11L616 11M186 42C197.297 24.6159 162.698 23.1699 153.094 30.6381C145.066 36.8814 144.528 51.1216 153.043 57.1466C158.863 61.2644 166.485 61.6623 173 64.0941C176.689 65.471 181.768 68.3404 181.338 73C179.422 93.7604 150.443 69.6671 146.515 78.0594C143.742 83.986 152.778 87.2966 157 88.5602C166.836 91.5036 181.446 91.6095 188.442 82.9066C190.285 80.6143 191.428 77.9096 191.812 75C195.041 50.5387 167.735 60.2003 158.608 46.892C154.955 41.5652 161.003 36.3118 166 35.348C173.327 33.935 179.965 38.6569 186 42M245 71C232.946 87.9585 207.817 80.6806 206 60L255 60C255 53.2511 254.837 47.1677 251.723 41C243.206 24.129 219.802 21.645 206.174 33.669C191.905 46.2575 192.623 71.5369 207.015 83.6705C211.184 87.1859 216.551 89.4666 222 89.9066C229.834 90.5394 238.187 90.1972 245 85.8665C252.996 80.7842 255.18 74.2535 245 71M315 75L307 71C292.768 89.2792 272.488 79.3316 267 60L317 60C316.993 49.2814 315.019 38.8168 305.961 31.9282C288.327 18.5183 260.603 29.6555 258.174 52C256.68 65.7374 260.847 80.4312 274 87.1644C286.493 93.5593 311.209 90.9341 315 75M333 35L333 27L323 27L323 89L333 89C333 77.0247 329.135 56.9985 333.938 46.0039C339.435 33.4216 357.107 32.9558 363.16 45.0008C368.837 56.2949 365 76.5183 365 89L375 89C375 77.2583 370.792 55.5071 376.179 45.0147C382.241 33.2076 399.481 33.401 405.312 45.0008C410.916 56.1511 407 76.6688 407 89L417 89C417 67.7443 424.891 27.881 394 26.0934C385.29 25.5893 379.317 33.9738 372.09 33.9738C368.778 33.9738 365.091 29.273 361.999 27.9552C351.302 23.3964 340.845 27.344 333 35M435 34L435 27L425 27L425 112L435 112L435 82C438.809 85.419 442.914 88.3033 448 89.4707C494.855 100.226 496.608 19.1142 451 26.4398C444.841 27.4291 439.898 30.2651 435 34M584 73C570.624 67.5977 562.48 87.6161 547.001 77.2971C519.596 59.0282 552.855 18.4954 574 46L583 42C577.749 26.1799 556.598 22.5739 543 29.3781C531.615 35.0749 524.972 48.4059 526.171 61C527.32 73.0636 534.259 84.2583 546 88.4514C559.396 93.2356 580.897 89.0373 584 73M511 27L511 89L521 89L521 27L511 27M590 27L590 89L600 89L600 27L590 27M648 27L665 70L671.397 87L662 112L673.775 109.682L685.8 81L707 27L697.418 28.0278L691 41L678 75L664.681 42L658.301 28.0278L648 27z"/>
<path style="fill:#010101; stroke:none;" d="M206 52L245 52C241.338 27.6558 212.702 32.3481 206 52M268 52L307 52C300.847 30.7883 273.459 29.2306 268 52M448 36.5324C424.944 42.0252 431.43 86.3222 458 80.3187C485.804 74.0362 476.321 29.7854 448 36.5324z"/>
<path style="fill:#ffffff; stroke:none;" d="M36 61C45.7095 73.0531 55.6307 84.0912 46.0702 100C43.3 104.61 38.6959 107.534 36 112C50.5598 112 71.926 115.932 84.9992 108.467C101.884 98.8252 100.671 71.4116 83 63.3526C69.9761 57.4131 50.0721 61 36 61M16 65.5332C-10.499 71.9317 1.23435 113.658 28 107.471C55.6737 101.074 43.7114 58.8419 16 65.5332z"/>
</svg>
